<?xml version="1.0" encoding="UTF-8"?>
<svg width="24px" height="24px" viewBox="0 0 24 24" version="1.1" xmlns="http://www.w3.org/2000/svg" xmlns:xlink="http://www.w3.org/1999/xlink">
    <!-- Generator: Sketch 46.1 (44463) - http://www.bohemiancoding.com/sketch -->
    <title>Fill 3</title>
    <desc>Created with Sketch.</desc>
    <defs></defs>
    <g id="Page-1" stroke="none" stroke-width="1" fill="none" fill-rule="evenodd">
        <path d="M16.693,0.012 L14.583,1.114 L12.539,1.114 C12.737,1.261 12.968,1.456 13.231,1.697 C13.495,1.939 13.747,2.233 13.99,2.58 C14.231,2.927 14.44,3.331 14.616,3.794 C14.792,4.256 14.88,4.781 14.88,5.37 C14.88,5.958 14.802,6.473 14.649,6.914 C14.495,7.356 14.286,7.75 14.023,8.097 C13.759,8.443 13.462,8.759 13.133,9.042 C12.803,9.326 12.462,9.594 12.111,9.846 C11.891,10.056 11.682,10.277 11.485,10.508 C11.287,10.739 11.188,11.034 11.188,11.391 C11.188,11.748 11.287,12.026 11.485,12.226 C11.682,12.426 11.869,12.599 12.045,12.747 L13.231,13.629 C13.583,13.923 13.929,14.218 14.27,14.512 C14.61,14.806 14.907,15.121 15.16,15.458 C15.412,15.794 15.616,16.172 15.77,16.593 C15.923,17.012 16,17.496 16,18.042 C16,18.778 15.813,19.503 15.44,20.217 C15.066,20.931 14.517,21.568 13.792,22.125 C13.067,22.681 12.16,23.133 11.072,23.481 C9.985,23.827 8.737,24.001 7.331,24.001 C6.144,24.001 5.106,23.875 4.216,23.623 C3.326,23.371 2.584,23.035 1.991,22.615 C1.398,22.195 0.958,21.718 0.673,21.183 C0.387,20.648 0.244,20.086 0.244,19.499 C0.244,18.932 0.425,18.287 0.788,17.563 C1.15,16.839 1.815,16.204 2.782,15.658 C3.288,15.364 3.831,15.128 4.414,14.95 C4.996,14.771 5.573,14.63 6.144,14.525 C6.716,14.42 7.254,14.346 7.76,14.304 C8.265,14.262 8.704,14.231 9.078,14.21 C8.836,13.916 8.611,13.607 8.402,13.281 C8.193,12.956 8.089,12.552 8.089,12.069 C8.089,11.797 8.122,11.571 8.188,11.392 C8.254,11.214 8.331,11.03 8.419,10.841 C8.243,10.863 8.067,10.878 7.892,10.889 C7.715,10.9 7.54,10.905 7.364,10.905 C6.485,10.905 5.705,10.763 5.024,10.48 C4.342,10.196 3.771,9.824 3.31,9.362 C2.848,8.901 2.496,8.37 2.255,7.772 C2.013,7.174 1.892,6.571 1.892,5.962 C1.892,5.227 2.068,4.488 2.42,3.742 C2.771,2.998 3.298,2.331 4.002,1.743 C4.946,1.009 5.941,0.537 6.985,0.327 C8.026,0.118 8.997,0.012 9.902,0.012 L16.693,0.012 Z M12.556,21.718 C11.732,22.358 10.528,22.679 8.946,22.679 C7.166,22.679 5.754,22.321 4.711,21.608 C3.667,20.894 3.145,19.971 3.145,18.838 C3.145,18.271 3.26,17.799 3.491,17.421 C3.722,17.043 3.99,16.728 4.299,16.477 C4.606,16.225 4.919,16.031 5.238,15.894 C5.556,15.758 5.804,15.658 5.98,15.595 C6.331,15.49 6.693,15.401 7.067,15.327 C7.441,15.254 7.793,15.202 8.122,15.17 C8.452,15.139 8.737,15.117 8.979,15.107 C9.221,15.096 9.375,15.091 9.441,15.091 C9.616,15.091 9.754,15.091 9.853,15.091 C9.952,15.091 10.067,15.102 10.199,15.123 C10.814,15.542 11.353,15.92 11.814,16.256 C12.276,16.592 12.649,16.917 12.935,17.232 C13.22,17.547 13.434,17.867 13.578,18.192 C13.72,18.517 13.792,18.879 13.792,19.278 C13.792,20.265 13.38,21.078 12.556,21.718 Z M7.084,9.439 C6.567,9.049 6.139,8.57 5.798,8.001 C5.457,7.433 5.205,6.822 5.04,6.169 C4.875,5.516 4.793,4.926 4.793,4.4 C4.793,3.979 4.842,3.568 4.941,3.168 C5.04,2.767 5.232,2.399 5.518,2.062 C5.782,1.746 6.122,1.493 6.54,1.304 C6.957,1.114 7.386,1.019 7.826,1.019 C8.507,1.019 9.105,1.214 9.622,1.604 C10.138,1.993 10.572,2.483 10.924,3.073 C11.275,3.663 11.539,4.294 11.715,4.968 C11.891,5.642 11.979,6.263 11.979,6.832 C11.979,7.127 11.935,7.496 11.847,7.938 C11.759,8.381 11.528,8.78 11.155,9.138 C10.891,9.391 10.556,9.602 10.149,9.77 C9.743,9.939 9.33,10.023 8.913,10.023 C8.21,10.023 7.6,9.828 7.084,9.439 Z M19.744,5.87 L17.287,5.87 L17.287,5.083 L19.744,5.083 L19.744,2.718 L20.555,2.718 L20.555,5.083 L23.018,5.083 L23.018,5.87 L20.555,5.87 L20.555,8.235 L19.744,8.235 L19.744,5.87 Z" id="Fill-3" fill="#FFFFFF"></path>
    </g>
</svg>