<?xml version="1.0" encoding="UTF-8"?>
<svg width="20px" height="24px" viewBox="0 0 20 24" version="1.1" xmlns="http://www.w3.org/2000/svg" xmlns:xlink="http://www.w3.org/1999/xlink">
    <!-- Generator: Sketch 46.1 (44463) - http://www.bohemiancoding.com/sketch -->
    <title>Path</title>
    <desc>Created with Sketch.</desc>
    <defs></defs>
    <g id="Page-1" stroke="none" stroke-width="1" fill="none" fill-rule="evenodd">
        <path d="M8.164,15.857 C7.527,18.798 6.805,21.679 4.481,24 C4.379,23.716 4.254,23.535 4.259,23.357 C4.307,21.605 4.216,19.829 4.481,18.106 C4.791,16.09 5.456,14.128 5.881,12.126 C6.014,11.498 5.96,10.798 5.838,10.16 C5.578,8.802 5.642,7.522 6.499,6.377 C7.215,5.419 8.29,5.069 9.212,5.433 C10.09,5.779 10.607,6.743 10.355,7.923 C10.063,9.289 9.578,10.616 9.266,11.979 C9.145,12.506 9.129,13.136 9.311,13.633 C9.639,14.529 10.775,15 11.751,14.818 C13.129,14.561 13.989,13.667 14.587,12.522 C15.569,10.643 15.861,8.625 15.565,6.55 C15.318,4.817 14.294,3.565 12.64,2.951 C9.361,1.733 5.233,2.728 3.696,6.269 C2.921,8.054 2.701,9.875 4.006,11.583 C4.316,11.99 4.215,13.404 3.802,13.688 C3.585,13.838 3.124,13.852 2.879,13.728 C1.178,12.868 0.515,11.362 0.334,9.595 C-0.198,4.396 3.909,0.623 8.758,0.095 C12.185,-0.277 15.187,0.52 17.488,3.172 C18.989,4.903 19.367,6.951 19.169,9.15 C18.958,11.49 18.197,13.605 16.507,15.326 C14.594,17.275 11.566,17.884 9.453,16.756 C9.04,16.535 8.68,16.22 8.164,15.857 Z" id="Path" fill="#FFFFFF"></path>
    </g>
</svg>