<?xml version="1.0" encoding="UTF-8"?>
<svg width="27px" height="22px" viewBox="0 0 27 22" version="1.1" xmlns="http://www.w3.org/2000/svg" xmlns:xlink="http://www.w3.org/1999/xlink">
    <!-- Generator: Sketch 46.1 (44463) - http://www.bohemiancoding.com/sketch -->
    <title>Path</title>
    <desc>Created with Sketch.</desc>
    <defs></defs>
    <g id="Page-1" stroke="none" stroke-width="1" fill="none" fill-rule="evenodd">
        <path d="M0.245,19.459 C3.26,19.626 5.826,18.954 8.259,17.127 C5.762,16.854 4.086,15.76 3.132,13.557 C3.895,13.497 4.575,13.444 5.256,13.391 C2.818,12.365 1.309,10.779 1.136,8.086 C1.915,8.281 2.61,8.454 3.304,8.627 C3.342,8.573 3.379,8.517 3.416,8.463 C2.427,7.553 1.575,6.572 1.306,5.232 C1.042,3.922 1.162,2.68 1.861,1.411 C4.908,4.79 8.644,6.715 13.227,7.012 C13.29,6.15 13.247,5.322 13.427,4.544 C14.322,0.681 18.957,-0.95 22.14,1.5 C22.787,1.999 23.319,2.055 24.002,1.787 C24.708,1.51 25.417,1.244 26.2,0.944 C25.862,2.085 25.056,2.835 24.195,3.548 C24.222,3.608 24.249,3.668 24.276,3.729 C25.107,3.53 25.938,3.331 26.768,3.131 C26.802,3.17 26.837,3.209 26.87,3.248 C26.277,3.848 25.736,4.512 25.073,5.027 C24.494,5.476 24.31,5.95 24.277,6.658 C24.002,12.526 21.4,17.149 16.05,19.954 C11.039,22.581 5.881,22.395 0.83,19.823 C0.683,19.748 0.548,19.648 0.245,19.459 Z" id="Path" fill="#FFFFFF"></path>
    </g>
</svg>